<?xml version="1.0" encoding="UTF-8" standalone="no"?>
<!DOCTYPE svg PUBLIC "-//W3C//DTD SVG 1.1//EN" "http://www.w3.org/Graphics/SVG/1.1/DTD/svg11.dtd">
<svg width="100%" height="100%" viewBox="0 0 16 16" version="1.1" xmlns="http://www.w3.org/2000/svg" xmlns:xlink="http://www.w3.org/1999/xlink" xml:space="preserve" xmlns:serif="http://www.serif.com/" style="fill-rule:evenodd;clip-rule:evenodd;stroke-linejoin:round;stroke-miterlimit:2;">
    <rect x="4" y="4" width="8" height="8"/>
    <path d="M3.121,10.121l0,-4.242l-2.121,2.121l2.121,2.121Z"/>
    <path d="M12.879,10.121l-0,-4.242l2.121,2.121l-2.121,2.121Z"/>
    <path d="M2,9.707l0.768,0.768c0.065,0.065 0.146,0.11 0.232,0.131l-0,1.394l-1,-0l-0,-2.293Zm-0,-5.707l1,0l-0,1.394c-0.086,0.021 -0.167,0.066 -0.232,0.131l-0.768,0.768l0,-2.293Z"/>
    <path d="M14,6.293l-0.768,-0.768c-0.065,-0.065 -0.146,-0.11 -0.232,-0.131l0,-1.394l1,0l0,2.293Zm0,5.707l-1,0l-0,-1.394c0.086,-0.021 0.167,-0.066 0.232,-0.131l0.768,-0.768l0,2.293Z"/>
</svg>
