<?xml version="1.0" encoding="UTF-8" standalone="no"?>
<!DOCTYPE svg PUBLIC "-//W3C//DTD SVG 1.1//EN" "http://www.w3.org/Graphics/SVG/1.1/DTD/svg11.dtd">
<svg width="100%" height="100%" viewBox="0 0 16 16" version="1.1" xmlns="http://www.w3.org/2000/svg" xmlns:xlink="http://www.w3.org/1999/xlink" xml:space="preserve" xmlns:serif="http://www.serif.com/" style="fill-rule:evenodd;clip-rule:evenodd;stroke-linecap:square;stroke-linejoin:round;stroke-miterlimit:1.5;">
    <rect id="Inputs" x="0" y="0" width="16" height="16" style="fill:none;"/>
    <g id="Inputs1" serif:id="Inputs">
        <path d="M15,1l0,6l-14,0l0,-6l14,0Zm-1,1l-12,0l-0,4l12,-0l0,-4Z"/>
        <path d="M3.5,3l0,2" style="fill:none;stroke:#000;stroke-width:1px;"/>
        <path d="M7,9l0,6l-6,-0l0,-6l6,0Zm-1,1l-4,0l0,4l4,-0l-0,-4Z"/>
        <path d="M12,9c1.656,0 3,1.344 3,3c0,1.656 -1.344,3 -3,3c-1.656,-0 -3,-1.344 -3,-3c0,-1.656 1.344,-3 3,-3Zm0,1c-1.104,0 -2,0.896 -2,2c0,1.104 0.896,2 2,2c1.104,0 2,-0.896 2,-2c0,-1.104 -0.896,-2 -2,-2Z"/>
        <rect x="3" y="11" width="2" height="2"/>
        <circle cx="12" cy="12" r="1"/>
    </g>
</svg>
