<?xml version="1.0" encoding="UTF-8" standalone="no"?>
<!DOCTYPE svg PUBLIC "-//W3C//DTD SVG 1.1//EN" "http://www.w3.org/Graphics/SVG/1.1/DTD/svg11.dtd">
<svg width="100%" height="100%" viewBox="0 0 16 16" version="1.1" xmlns="http://www.w3.org/2000/svg" xmlns:xlink="http://www.w3.org/1999/xlink" xml:space="preserve" xmlns:serif="http://www.serif.com/" style="fill-rule:evenodd;clip-rule:evenodd;stroke-linecap:square;stroke-linejoin:round;stroke-miterlimit:1.5;">
    <rect id="select" x="0" y="0" width="16" height="16" style="fill:none;"/>
    <g id="select1" serif:id="select">
        <path d="M15,1l0,3l-14,-0l0,-3l14,0Zm-1,1l-12,0l-0,1l12,-0l0,-1Z"/>
        <path d="M15,1l0,3l-4,-0l0,-3l4,0Zm-1,1l-2,0l-0,1l2,-0l0,-1Z"/>
        <path d="M12,3l0,12l-11,-0l0,-12l11,-0Zm-1,1c0,0 -9,-0 -9,-0c0,-0 0,10 -0,10c-0,0 9,-0 9,0l0,-10Z"/>
        <path d="M3.5,5.5l6,-0" style="fill:none;stroke:#000;stroke-width:1px;"/>
        <path d="M3.5,7.5l6,-0" style="fill:none;stroke:#000;stroke-width:1px;"/>
        <path d="M3.5,9.5l6,0" style="fill:none;stroke:#000;stroke-width:1px;"/>
        <path d="M3.5,11.5l6,0" style="fill:none;stroke:#000;stroke-width:1px;"/>
    </g>
</svg>
