<?xml version="1.0" encoding="UTF-8" standalone="no"?>
<!DOCTYPE svg PUBLIC "-//W3C//DTD SVG 1.1//EN" "http://www.w3.org/Graphics/SVG/1.1/DTD/svg11.dtd">
<svg width="100%" height="100%" viewBox="0 0 200 200" version="1.1" xmlns="http://www.w3.org/2000/svg" xmlns:xlink="http://www.w3.org/1999/xlink" xml:space="preserve" xmlns:serif="http://www.serif.com/" style="fill-rule:evenodd;clip-rule:evenodd;stroke-linejoin:round;stroke-miterlimit:2;">
    <g transform="matrix(1,0,0,1,-259,0)">
        <g transform="matrix(1,0,0,1,259,0)">
            <rect id="md" x="0" y="0" width="200" height="200" style="fill:none;"/>
            <g id="md1" serif:id="md">
                <g transform="matrix(1,0,0,1,-259,0)">
                    <path d="M419,30L419,170C419,175.519 414.519,180 409,180L309,180C303.481,180 299,175.519 299,170L299,30C299,24.481 303.481,20 309,20L409,20C414.519,20 419,24.481 419,30ZM413,35C413,29.481 408.519,25 403,25L315,25C309.481,25 305,29.481 305,35L305,150C305,155.519 309.481,160 315,160L403,160C408.519,160 413,155.519 413,150L413,35ZM359,165C356.24,165 354,167.24 354,170C354,172.76 356.24,175 359,175C361.76,175 364,172.76 364,170C364,167.24 361.76,165 359,165Z" style="fill:rgb(151,185,255);"/>
                </g>
            </g>
        </g>
    </g>
</svg>
