<?xml version="1.0" encoding="UTF-8" standalone="no"?>
<!DOCTYPE svg PUBLIC "-//W3C//DTD SVG 1.1//EN" "http://www.w3.org/Graphics/SVG/1.1/DTD/svg11.dtd">
<svg width="100%" height="100%" viewBox="0 0 200 200" version="1.1" xmlns="http://www.w3.org/2000/svg" xmlns:xlink="http://www.w3.org/1999/xlink" xml:space="preserve" xmlns:serif="http://www.serif.com/" style="fill-rule:evenodd;clip-rule:evenodd;stroke-linejoin:round;stroke-miterlimit:2;">
    <rect id="sm" x="0" y="0" width="200" height="200" style="fill:none;"/>
    <g id="sm1" serif:id="sm">
        <path d="M140,30L140,170C140,175.519 135.519,180 130,180L70,180C64.481,180 60,175.519 60,170L60,30C60,24.481 64.481,20 70,20L130,20C135.519,20 140,24.481 140,30ZM135,35C135,29.481 130.519,25 125,25L75,25C69.481,25 65,29.481 65,35L65,150C65,155.519 69.481,160 75,160L125,160C130.519,160 135,155.519 135,150L135,35ZM100,165C97.24,165 95,167.24 95,170C95,172.76 97.24,175 100,175C102.76,175 105,172.76 105,170C105,167.24 102.76,165 100,165Z" style="fill:rgb(151,185,255);"/>
    </g>
</svg>
