<?xml version="1.0" encoding="UTF-8" standalone="no"?>
<!DOCTYPE svg PUBLIC "-//W3C//DTD SVG 1.1//EN" "http://www.w3.org/Graphics/SVG/1.1/DTD/svg11.dtd">
<svg width="100%" height="100%" viewBox="0 0 200 200" version="1.1" xmlns="http://www.w3.org/2000/svg" xmlns:xlink="http://www.w3.org/1999/xlink" xml:space="preserve" xmlns:serif="http://www.serif.com/" style="fill-rule:evenodd;clip-rule:evenodd;stroke-linejoin:round;stroke-miterlimit:2;">
    <g transform="matrix(1,0,0,1,-1051,0)">
        <g transform="matrix(1,0,0,1,1051,0)">
            <rect id="_2xl" serif:id="2xl" x="0" y="0" width="200" height="200" style="fill:none;"/>
            <g id="_2xl1" serif:id="2xl">
                <g transform="matrix(1,0,0,1,0,25.75)">
                    <g transform="matrix(1,0,0,0.5,-791,45)">
                        <path d="M911,135C911,132.24 909.88,130 908.5,130L873.5,130C872.12,130 871,132.24 871,135C871,137.76 872.12,140 873.5,140L908.5,140C909.88,140 911,137.76 911,135Z" style="fill:rgb(151,185,255);"/>
                    </g>
                    <g transform="matrix(1.5,0,0,0.85,-1236.5,9.5)">
                        <path d="M911,133.529C911,131.581 910.104,130 909,130L873,130C871.896,130 871,131.581 871,133.529L871,136.471C871,138.419 871.896,140 873,140L909,140C910.104,140 911,138.419 911,136.471L911,133.529Z" style="fill:rgb(151,185,255);"/>
                    </g>
                    <g transform="matrix(1,0,0,1,-1051,-25.75)">
                        <path d="M1211,55.75L1211,120.75C1211,126.269 1206.52,130.75 1201,130.75L1101,130.75C1095.48,130.75 1091,126.269 1091,120.75L1091,55.75C1091,50.231 1095.48,45.75 1101,45.75L1201,45.75C1206.52,45.75 1211,50.231 1211,55.75ZM1205,60.75C1205,55.231 1200.52,50.75 1195,50.75L1107,50.75C1101.48,50.75 1097,55.231 1097,60.75L1097,115.75C1097,121.269 1101.48,125.75 1107,125.75L1195,125.75C1200.52,125.75 1205,121.269 1205,115.75L1205,60.75ZM1133.53,71.363L1145.22,71.363L1151.31,81.934L1157.22,71.363L1168.8,71.363L1158.11,88.004L1169.81,105.723L1157.88,105.723L1151.09,94.684L1144.31,105.723L1132.45,105.723L1144.3,87.816L1133.53,71.363ZM1173.21,71.363L1183.82,71.363L1183.82,97.262L1200.39,97.262L1200.39,105.723L1173.21,105.723L1173.21,71.363ZM1130.25,105.723L1101.61,105.723C1101.93,102.895 1102.93,100.234 1104.59,97.742C1106.26,95.25 1109.38,92.309 1113.96,88.918C1116.75,86.84 1118.54,85.262 1119.32,84.184C1120.11,83.105 1120.5,82.082 1120.5,81.113C1120.5,80.066 1120.11,79.172 1119.34,78.43C1118.56,77.687 1117.59,77.316 1116.42,77.316C1115.2,77.316 1114.2,77.699 1113.43,78.465C1112.66,79.23 1112.14,80.582 1111.87,82.52L1102.31,81.746C1102.68,79.059 1103.37,76.961 1104.37,75.453C1105.37,73.945 1106.78,72.789 1108.6,71.984C1110.42,71.18 1112.94,70.777 1116.16,70.777C1119.52,70.777 1122.13,71.16 1124,71.926C1125.87,72.691 1127.34,73.867 1128.41,75.453C1129.48,77.039 1130.01,78.816 1130.01,80.785C1130.01,82.879 1129.4,84.879 1128.17,86.785C1126.94,88.691 1124.71,90.785 1121.48,93.066C1119.56,94.395 1118.27,95.324 1117.62,95.855C1116.98,96.387 1116.21,97.082 1115.34,97.941L1130.25,97.941L1130.25,105.723Z" style="fill:rgb(151,185,255);"/>
                    </g>
                </g>
            </g>
        </g>
    </g>
</svg>
