<?xml version="1.0" encoding="UTF-8" standalone="no"?>
<!DOCTYPE svg PUBLIC "-//W3C//DTD SVG 1.1//EN" "http://www.w3.org/Graphics/SVG/1.1/DTD/svg11.dtd">
<svg width="100%" height="100%" viewBox="0 0 16 16" version="1.1" xmlns="http://www.w3.org/2000/svg" xmlns:xlink="http://www.w3.org/1999/xlink" xml:space="preserve" xmlns:serif="http://www.serif.com/" style="fill-rule:evenodd;clip-rule:evenodd;stroke-linecap:square;stroke-linejoin:round;stroke-miterlimit:1.5;">
    <rect id="textarea" x="0" y="0" width="16" height="16" style="fill:none;"/>
    <g id="textarea1" serif:id="textarea">
        <path d="M15,1l0,14l-14,0l0,-14l14,0Zm-1,1l-12,-0l-0,12l12,0l0,-12Z"/>
        <g>
            <path d="M13,12l-0,1l-3,0l-0,-1l0.6,0l1.8,0l0.6,0Zm-3,-3l-0,-1l3,0l-0,1l-0.6,0l-1.8,-0l-0.6,-0Z"/>
            <rect x="11" y="9" width="1" height="3"/>
        </g>
        <path d="M3.5,3.5l9,-0" style="fill:none;stroke:#000;stroke-width:1px;"/>
        <path d="M12.5,6l-9,-0" style="fill:none;stroke:#000;stroke-width:1px;"/>
        <path d="M3.5,8.5l5,-0" style="fill:none;stroke:#000;stroke-width:1px;"/>
        <path d="M3.5,11l5,-0" style="fill:none;stroke:#000;stroke-width:1px;"/>
    </g>
</svg>
