<svg xmlns="http://www.w3.org/2000/svg" xmlns:xlink="http://www.w3.org/1999/xlink" xmlns:serif="http://www.serif.com/" width="100%" height="100%" viewBox="0 0 264 418" xml:space="preserve" style="fill-rule:evenodd;clip-rule:evenodd;stroke-linecap:round;stroke-linejoin:round;stroke-miterlimit:1.5;"><g transform="matrix(1,0,0,1,-0.435336,-1.97882)"><g id="eneagrama-konscio" transform="matrix(0.978655,0,0,0.978655,-103.606,-54.9484)"><g id="bordes"><path d="M241,83.361L355.336,153.558L320.811,314.579L241,371.134L161.189,314.579L126.664,153.558L241,83.361Z" style="fill:none;stroke:rgb(0,160,255);stroke-width:5.11px;"></path><path d="M126.664,153.558L241,198.106L355.336,153.558L126.664,153.558Z" style="fill:none;stroke:rgb(0,160,255);stroke-width:5.11px;"></path><path d="M241,278.743L161.189,314.579L320.811,314.579L241,278.743Z" style="fill:none;stroke:rgb(0,160,255);stroke-width:5.11px;"></path><path d="M241,83.361L241,456.913" style="fill:none;stroke:rgb(0,160,255);stroke-width:5.11px;"></path></g><g id="circulos"><g id="politica_ciudadana" transform="matrix(1,0,0,1,-0.382465,1.76493)"><circle cx="355.718" cy="151.793" r="17.799" style="fill:white;stroke:rgb(0,160,255);stroke-width:5.11px;"></circle></g><g id="periodismo_etico" transform="matrix(1,0,0,1,-2.80178,-1.38246)"><circle cx="324.267" cy="315.961" r="16.071" style="fill:white;stroke:rgb(0,160,255);stroke-width:5.11px;"></circle></g><g id="educacion_consciente" transform="matrix(1,0,0,1,-8.26853,-2.76493)"><circle cx="249.269" cy="86.126" r="22.638" style="fill:white;stroke:rgb(0,160,255);stroke-width:5.11px;"></circle></g><g id="innovacion_tecnologica" transform="matrix(0.847328,0,0,0.847328,29.7877,125.129)"><circle cx="249.269" cy="86.126" r="22.638" style="fill:white;stroke:rgb(0,160,255);stroke-width:6.03px;"></circle></g><g id="cultura_global" transform="matrix(0.840103,0,0,0.840103,31.5889,206.388)"><circle cx="249.269" cy="86.126" r="22.638" style="fill:white;stroke:rgb(0,160,255);stroke-width:6.08px;"></circle></g><g id="ecologia_medioambiental" transform="matrix(0.924542,0,0,0.924542,10.5409,291.507)"><circle cx="249.269" cy="86.126" r="22.638" style="fill:white;stroke:rgb(0,160,255);stroke-width:5.53px;"></circle></g><g id="salud_holistica" transform="matrix(1.12434,0,0,1.12434,-39.262,360.078)"><circle cx="249.269" cy="86.126" r="22.638" style="fill:white;stroke:rgb(0,160,255);stroke-width:4.54px;"></circle></g><g id="comercio_justo" transform="matrix(-1,0,0,1,482.382,1.76493)"><circle cx="355.718" cy="151.793" r="17.799" style="fill:white;stroke:rgb(0,160,255);stroke-width:5.11px;"></circle></g><g id="historia_no_manipulada" transform="matrix(-1,0,0,1,484.802,-1.38246)"><circle cx="324.267" cy="315.961" r="16.071" style="fill:white;stroke:rgb(0,160,255);stroke-width:5.11px;"></circle></g></g></g></g></svg>