<?xml version="1.0" encoding="UTF-8"?>
<svg id="Layer_2" data-name="Layer 2" xmlns="http://www.w3.org/2000/svg" viewBox="0 0 181.03 286.04">
  <defs>
    <style>
      .cls-1 {
        fill: #f86532;
      }

      .cls-2 {
        fill: #67330b;
      }

      .cls-3 {
        fill: #f1f11a;
      }

      .cls-4 {
        fill: #1c96c1;
      }

      .cls-5 {
        fill: #0b8a38;
      }

      .cls-6 {
        fill: #146497;
      }

      .cls-7 {
        fill: #ef1185;
      }

      .cls-8 {
        fill: #66338f;
      }
    </style>
  </defs>
  <g id="Layer_1-2" data-name="Layer 1">
    <path class="cls-6" d="m180.17,90.48c-.08.67-.16,1.34-.25,2.01-.14.18-.2.38-.16.6-.27,1.96-.54,3.93-.81,5.89-.15.28-.13.63-.34.9l-1.21,4.09c-.09.16-.17.32-.23.49-.25.84-.51,1.68-.76,2.51-.1.16-.18.32-.23.5-.88,2.17-1.77,4.33-2.65,6.5-.25.26-.22.64-.38.93-.18.38-.36.76-.55,1.15l-.05.18-.06.21c-.16.18-.36.33-.26.62-1.83,3.99-3.94,7.81-6.42,11.44-4.17,6.12-9.15,11.53-14.5,16.63-3.37,3.21-6.9,6.19-10.8,8.73-.34.22-.73.35-1.1.53-.21.23-.53.21-.79.35-.92.67-1.82,1.39-2.78,2.01-1.58,1.03-3.2,2.01-4.81,3.01-2.34,1.26-4.72,2.41-7.32,3.05-.97.15-1.94.28-2.82.76-.19.09-.39.16-.6.22-.4.12-.8.23-1.19.38-.29.11-.59.2-.89.29-.2.08-.4.15-.61.22-.21.08-.43.13-.65.18-1.29.12-2.48.59-3.69.97-.63.15-1.27.2-1.91.22-3.26.29-6.46.98-9.71,1.29-.27.08-.55.13-.84.16-1.72.1-3.44.02-5.15.09-1.26.01-2.52.03-3.76-.19-1-.31-2.03-.41-3.07-.39-.5-.02-.99-.08-1.45-.28-.29-.44-.62-.44-.99-.1-.65.14-1.2-.15-1.78-.36-7.23-.98-14.11-3.14-20.79-5.99-1.24-.53-2.42-1.13-3.3-2.18-.61-.74-1.42-1.13-2.32-1.38-3.89-1.05-6.91-3.56-9.95-6.02-.97-.78-1.81-1.71-2.81-2.47-5.23-3.95-9.64-8.68-13.31-14.1-.8-1.17-2-2.12-2.5-3.42-1.23-3.21-3.2-5.99-4.77-9-.99-1.91-1.83-3.92-2.76-5.87-1.41-2.96-1.8-6.24-3.14-9.2-1.43-3.16-1.99-6.5-2.06-9.94-.01-.58-.1-1.16-.24-1.73-.32-1.33-.23-2.63.21-3.91,0-1.16-.02-2.32.03-3.48.23-4.81.4-9.62.77-14.41.15-1.96.77-3.88,1.17-5.82,0-.15.04-.29.13-.4.1-2.64,1.01-5.08,1.79-7.56.07-.16.14-.33.2-.5.07-.49.05-1.03.24-1.47,1.71-3.86,3.35-7.77,5.25-11.54,1.37-2.73,2.85-5.48,4.71-7.89,4.21-5.44,8.16-11.12,13.35-15.72,2.54-2.25,5.25-4.3,7.88-6.44,1.46-.42,2.44-1.54,3.61-2.41,1.99-1.18,3.99-2.36,5.98-3.54.56-.17,1.09-.39,1.54-.78.15-.09.3-.17.45-.26.21-.03.38-.13.52-.28,3.82-2.05,7.83-3.59,12.02-4.67.16-.07.32-.15.48-.24,5.42-1.8,11.01-2.75,16.66-3.4.11-.01.21-.03.32-.04,7.78-.44,15.52-.22,23.16,1.5.17.06.34.12.5.17,2.51.67,5.02,1.34,7.53,2.01.09.03.18.06.26.09,7.51,2.05,14.31,5.57,20.67,10,.68,1.04,1.86,1.36,2.83,1.98l.17.12c.13.1.27.2.4.3.23.16.46.33.69.49.59.95,1.53,1.45,2.47,1.95,3.13,2.59,6.1,5.32,8.47,8.65.52,1.21,1.41,2.11,2.45,2.88l.08.08c.07.2.2.35.38.46,1.72,2.44,3.57,4.8,5.14,7.33,2.55,4.1,4.51,8.51,6.34,12.97.09.22.09.49.13.73.07.15.14.29.21.44.1.34.19.68.29,1.02.07.17.14.33.22.49,2.3,6.25,3.5,12.75,4.26,19.34.65,5.63.44,11.23-.41,16.81.05.16.03.31-.07.46Z"/>
    <path class="cls-1" d="m85.01,165.83c.53.1,1.06.2,1.59.3.15.04.31.06.46.06.52.07,1.04.15,1.56.22.92.51,1.99-.09,2.92.39,1.41.08,2.82.15,4.23.23,1.71.11,3.43.19,5.14-.05.25-.04.51-.08.76-.13,3.36-.3,6.73-.55,10.03-1.27.64-.12,1.29-.23,1.93-.35,1.23-.34,2.6-.1,3.71-.93.1,0,.19-.02.26-.09.17-.09.35-.15.54-.17.33-.07.65-.14.98-.22.37-.02.66-.32,1.05-.27.16-.05.33-.09.49-.14.99-.61,1.98-.73,2.97,0,.8.69.98,1.68,1.26,2.62.28.95.66,1.86,1.07,2.75.15.3.28.62.4.94.25.69.33,1.43.69,2.08.1.18.21.35.33.52.29.94.55,1.9.87,2.83,1.95,5.65,4.11,11.2,6.81,16.55,3.37,6.68,6.82,13.3,11.03,19.5.19.27.33.58.52.85.34.51.3.86-.31,1.16-3.95,1.93-7.81,4.07-11.84,5.77-3,1.27-5.68,3.04-8.51,4.56-1.51.82-3.04,1.59-4.54,2.45-4.82,2.78-9.62,5.58-13.97,9.06-3.5,2.8-6.94,5.67-10.34,8.59-2.95,2.53-5.86,5.1-8.67,7.79-3.41,3.27-6.62,6.72-9.78,10.25-2.88,3.21-5.51,6.62-8.34,9.86-3.55,4.07-6.56,8.55-9.48,13.09-.18.28-.33.58-.52.85-.13.19-.31.35-.47.52.03-.24,0-.52.09-.73,1.96-4.32,3.2-8.89,4.47-13.44.29-1.04.63-2.08.2-3.17.27-1.32.86-2.49,1.65-3.58,3.28-4.54,6.02-9.39,8.15-14.56,2.09-5.09,3.72-10.31,4.62-15.77,1.59-9.61,2.31-19.32,3.77-28.94.14-.91.11-1.83.11-2.74,0-3.5-.14-7,.03-10.48.28-5.81-.8-11.42-1.99-17.05-.62-2.92-1.5-5.8-1.6-8.81.32-.8.99-1.11,1.77-1.1,1.31.01,2.64-.25,3.93.18Z"/>
    <path class="cls-2" d="m79.56,166.86c.86,3.71,1.74,7.42,2.58,11.14,2.04,9.11,1.83,18.35,1.32,27.57-.24,4.38-1.15,8.71-1.69,13.08-.44,3.54-.76,7.1-1.2,10.64-1,8.03-2.91,15.79-6.28,23.21-2.64,5.8-6.06,11.06-9.71,16.21-.7-.24-.46-.79-.35-1.23,2.15-8.25,3.14-16.68,3.58-25.15.24-4.56-.07-9.15-.36-13.72-.27-4.31-.8-8.61-1.27-12.91-.88-8.13-2.74-16.05-5.4-23.78-.65-1.89-1.24-3.79-1.86-5.69-.1-.23-.04-.54-.33-.68-1.74-4.05-3.48-8.1-5.22-12.15.17-1.12,1.12-1.1,1.9-1.21,7.28-1,14.25-3.18,21.23-5.36,1.01-.32,2.04-.85,3.05.03Z"/>
    <path class="cls-7" d="m52.74,172.86c-7.73.44-15.44,1.35-23.19.92-4.32-.24-8.65-.48-12.96-.91-2.49-.25-4.87-1.03-7.03-2.4-2.54-1.62-3.27-4.1-3.32-6.86-.01-.68.5-1.38.8-2.06,1.07-2.43,2.26-4.81,3.2-7.29.88-2.34.52-4.56-1.25-6.5-.61-.66-1.01-1.52-1.46-2.31-.58-1.03-.56-2.07.15-3.05.24-.34.5-.67.69-1.04.85-1.61.8-1.79-.54-3.21-.74-.79-1.51-1.57-2.11-2.46-1.22-1.82-.92-3.25.69-4.81.64-.61,1.21-1.38,1.56-2.18.67-1.52,1.16-3.12,1.72-4.68,1.02-.33,1.53.46,2.1,1.01,1.91,1.88,4.11,3.39,6.27,4.92,1.57,1.11,3.01,2.35,4.39,3.68,2.33,2.24,4.62,4.53,7.08,6.63,1.66,1.42,2.9,3.21,4.29,4.85,2.58,3.04,5.22,6.05,7.65,9.2,4.07,5.27,7.83,10.75,10.89,16.68.3.58.73,1.14.35,1.86Z"/>
    <path class="cls-8" d="m52.74,172.86c-4.16-7.87-9.07-15.23-14.92-21.96-1.68-1.94-3.22-4-4.92-5.92-5.84-6.6-12.17-12.66-19.46-17.67-1.35-.93-2.49-2.18-3.72-3.28-.62-.66-1.17-1.41-1.87-1.97-2.45-1.97-4.94-3.89-7.45-5.79-.58-.44-.42-.82-.14-1.26,1.46-2.3,2.9-4.6,4.4-6.87,1.69-2.55,3.41-5.07,5.17-7.57,1.57-2.23,3.22-4.41,4.84-6.61.73-.99,1.48-1.95,2.22-2.93.24,2.3.39,4.62.75,6.91.38,2.43.43,4.89,1.55,7.22.95,1.97,1.22,4.25,1.96,6.33.83,2.34,1.83,4.61,2.79,6.9.42.99.89,1.95,1.4,2.9.51.95,1.05,1.87,1.64,2.77.9,1.38,1.93,2.65,2.27,4.37.19.93.8,1.83,1.39,2.62,2.02,2.72,3.99,5.5,6.21,8.06,2.72,3.13,5.64,6.09,8.97,8.61.66.5,1.33.99,1.93,1.55,1.58,1.46,3.04,3.08,5.17,3.79.15.05.29.17.4.29,1.61,1.71,3.71,2.48,5.91,2.99.7.16,1.14.44,1.6.98.63.73,1.4,1.5,2.26,1.85,3.44,1.42,6.92,2.79,10.45,3.97,2.41.81,4.94,1.3,7.43,1.88.8.19,1.64.18,2.45.32.54.1,1.06.3,1.6.45-.99,0-2.01-.14-2.97.03-.85.15-1.65.65-2.47.99-1.19.31-2.39.58-3.57.93-7.24,2.12-14.41,4.52-21.99,5.22-.22.02-.42.25-.62.39-.21-.18-.43-.36-.64-.53Z"/>
    <path class="cls-5" d="m125.7,169.57c-.76-2.05-1.52-4.11-2.28-6.16-.2-.33-.28-.67-.11-1.04,2.06-.82,4.12-1.66,6.2-2.43.47-.18,1.03-.12,1.54-.17-1.54,2.16-2.76,4.49-3.21,7.12-.26,1.53-.31,3.09-.45,4.64-.04.17-.14.3-.3.37-.28-.19-.66-.33-.8-.6-.25-.48-.34-1.03-.5-1.55,0,0-.09-.18-.1-.18Z"/>
    <path class="cls-4" d="m56.02,13.41c-.82,1.67-1.85,2.36-3.61,2.41,1.2-.8,2.4-1.6,3.61-2.41Z"/>
    <path class="cls-4" d="m163.6,30.35c-1.64-.26-2.6-1.1-2.45-2.88,1.13.7,1.91,1.69,2.45,2.88Z"/>
    <path class="cls-4" d="m148.95,15.96c-2.15-.13-2.17-.14-2.83-1.98.94.66,1.89,1.32,2.83,1.98Z"/>
    <path class="cls-4" d="m152.68,18.82c-1.89.03-2.11-.15-2.47-1.95.82.65,1.65,1.3,2.47,1.95Z"/>
    <path class="cls-4" d="m63.54,9.09c-.09,1.09-.86.85-1.54.78.51-.26,1.02-.52,1.54-.78Z"/>
    <path class="cls-8" d="m58.6,185.55c.11.23.22.45.33.68-.11-.23-.22-.45-.33-.68Z"/>
    <path class="cls-4" d="m127.09,171.91c.1-.12.2-.25.3-.37v.8c-.11-.14-.2-.29-.3-.43Z"/>
    <path class="cls-4" d="m173.15,114.91c.13-.31.25-.62.38-.93-.13.31-.25.62-.38.93Z"/>
    <path class="cls-4" d="m178.61,99.89l.34-.9-.34.9Z"/>
    <path class="cls-4" d="m138.64,154.75c.26-.12.52-.23.79-.35-.26.12-.52.23-.79.35Z"/>
    <path class="cls-4" d="m18.99,66.93c.07.18.03.31-.13.4.04-.13.09-.27.13-.4Z"/>
    <path class="cls-4" d="m77.01,3.64c-.16.08-.32.16-.48.24.16-.08.32-.16.48-.24Z"/>
    <path class="cls-4" d="m176.39,53.87c-.07-.16-.15-.32-.22-.49.07.16.15.32.22.49Z"/>
    <path class="cls-4" d="m175.88,52.37c-.07-.15-.14-.3-.21-.44.07.15.14.3.21.44Z"/>
    <path class="cls-4" d="m164.06,30.89c-.13-.15-.25-.3-.38-.46.13.15.25.3.38.46Z"/>
    <path class="cls-4" d="m20.98,58.87c-.07.17-.14.33-.2.5.07-.17.14-.33.2-.5Z"/>
    <path class="cls-4" d="m179.76,93.1c.05-.2.11-.4.16-.6-.05.2-.11.4-.16.6Z"/>
    <path class="cls-4" d="m149.52,16.38c-.13-.1-.27-.2-.4-.3.13.1.27.2.4.3Z"/>
    <path class="cls-4" d="m177.17,104.47c.08-.16.15-.33.23-.49-.08.16-.15.33-.23.49Z"/>
    <path class="cls-4" d="m176.19,107.48c.08-.17.15-.33.23-.5-.08.17-.15.33-.23.5Z"/>
    <path class="cls-4" d="m64.51,8.55c-.17.09-.35.19-.52.28.17-.09.35-.19.52-.28Z"/>
    <path class="cls-4" d="m125.45,3.98c-.11.03-.2,0-.26-.09l.16-.06.1.15Z"/>
    <polygon class="cls-4" points="172.56 116.24 172.61 116.06 172.69 116.16 172.56 116.24"/>
    <path class="cls-4" d="m172.24,117.06c.09-.21.17-.41.26-.62-.09.21-.17.41-.26.62Z"/>
    <path class="cls-4" d="m117.65,1.87c-.17-.06-.34-.12-.5-.17.17.06.34.12.5.17Z"/>
    <path class="cls-4" d="m93.99.19l-.32.04c.09-.13.2-.15.32-.04Z"/>
    <path class="cls-4" d="m180.17,90.48l.07-.46c.03.11.07.22.07.34,0,.04-.09.08-.14.12Z"/>
    <path class="cls-5" d="m150.95,119.08c-1.78-.66-3.57-1.3-5.34-1.98-.46-.17-.87-.59-1.32-.64-2.39-.27-4.24-1.7-6.28-2.76-1.18-.61-2.42-1.09-3.62-1.67-1.52-.73-1.75-1.5-.56-2.62,3-2.85,4.99-6.41,7.18-9.84.8-1.26,1.57-2.53,2.43-3.75,1.12-1.58,1.87-1.67,3.56-.79,1.17.61,2.38,1.18,3.63,1.62,2.96,1.05,5.96,2,8.94,2.99.24.08.48.15.72.2,2.56.49,2.67.54,1.59,2.81-1.74,3.68-3.44,7.37-5.89,10.68-.93,1.26-1.64,2.68-2.4,4.06-.58,1.05-1.35,1.67-2.65,1.68Z"/>
    <path class="cls-4" d="m104.13,68.95c-.46.72-.78,1.31-1.18,1.82-2.34,2.99-4.69,5.97-7.06,8.94-.78.97-1.57,1.94-2.45,2.81-.25.24-.93.27-1.3.12-.6-.25-1.14-.68-1.64-1.12-1.87-1.64-3.7-3.33-5.56-4.98-2.17-1.92-4.36-3.82-6.56-5.71-.97-.83-1.02-1.22-.18-2.26,2.75-3.41,5.5-6.83,8.27-10.23.47-.58,1.01-1.11,1.56-1.62,1.07-1,1.05-.95,2.33.15,4.09,3.49,7.85,7.38,12.3,10.46.57.4.97,1.04,1.48,1.6Z"/>
    <path class="cls-3" d="m86.07,47.29c-.66-.48-1.44-.86-1.96-1.46-2.8-3.29-5.54-6.64-8.3-9.97l.08-.16-.14-.12c.28-.4.5-.87.85-1.19,4.44-4.03,9.32-7.47,14.35-10.7,1.18-.76,1.39-.63,2.13.49,2.74,4.17,6,7.93,9.71,11.27.7.63.59.95-.02,1.53-2.41,2.27-4.79,4.59-7.16,6.9-1.02.99-2.09,1.9-3.52,2.25-1.95.71-3.79,1.97-6.04,1.16Z"/>
    <path class="cls-4" d="m90.58,85.9c-.27.4-.48.65-.64.93-1.65,2.88-3.93,5.29-5.94,7.9-1.06,1.38-2.14,2.74-3.16,4.14-.96,1.32-1.46,1.41-2.77.26-1.68-1.48-3.31-3.01-5.01-4.48-2-1.73-4.05-3.42-6.08-5.13-.32-.27-.6-.57-.9-.86-1.57-1.51-1.54-1.49-.27-3.31,2.23-3.19,4.41-6.42,6.61-9.63.28-.41.54-.84.86-1.21,1.54-1.8,1.54-1.78,3.43-.21,4.26,3.54,8.54,7.07,12.8,10.6.36.3.68.64,1.06.99Z"/>
    <path class="cls-5" d="m138.99,63.97c.31.14.78.31,1.21.55,2.82,1.58,5.63,3.18,8.44,4.76.72.4,1.45.79,2.19,1.15,1.22.6,1.53,1.12,1.02,2.35-1.55,3.75-3.12,7.49-4.8,11.18-.86,1.88-1.96,3.65-2.99,5.44-.6,1.04-.93,1.14-2.01.54-3.18-1.76-6.35-3.55-9.51-5.35-1.21-.69-2.41-1.42-3.56-2.21-1.07-.74-1.16-1.12-.49-2.28,1.11-1.94,2.22-3.88,3.47-5.73,1.95-2.87,3.94-5.71,5.39-8.89.55-1.21.93-1.51,1.63-1.51Z"/>
    <path class="cls-5" d="m137.15,135.41c-.24-.06-.58-.09-.87-.22-4.77-2.11-9.54-4.24-14.31-6.36-.3-.14-.6-.29-.89-.45-1.67-.89-2.06-1.86-.57-3.24,1.57-1.46,3.07-2.99,4.52-4.57,1.06-1.15,1.98-2.44,2.99-3.64.69-.83,1.41-1.63,2.15-2.42.66-.7,1.4-.86,2.19-.18,2.07,1.78,4.77,2.27,7.14,3.44,2.73,1.36,5.62,2.41,8.43,3.61,1.38.59,1.61,1.48.64,2.72-.87,1.11-1.78,2.19-2.72,3.24-1.88,2.09-3.79,4.15-5.71,6.21-.8.86-1.64,1.66-2.98,1.85Z"/>
    <path class="cls-5" d="m116.91,97.45c.59-1.26,1.04-2.62,1.81-3.75,1.96-2.85,4.12-5.57,6.11-8.4.84-1.19,1.79-1.06,2.79-.49,4.39,2.47,8.78,4.95,13.11,7.53.38.23.66,1.37.43,1.76-1.66,2.76-3.36,5.51-5.24,8.12-1.49,2.07-3.18,4-4.92,5.87-.45.48-1.67.9-2.09.64-3.99-2.48-7.89-5.1-11.8-7.71-.17-.12-.21-.44-.3-.67-.54-.98-.4-1.94.09-2.89Z"/>
    <path class="cls-4" d="m59.04,56.33c1.32,1.59,2.55,3.26,3.99,4.74,2.72,2.81,5.51,5.55,8.36,8.22.73.69.76,1.13.25,1.87-2.18,3.13-4.32,6.28-6.49,9.41-.66.95-1.37,1.86-2.06,2.79-.81,1.09-1.35,1.09-2.28.14-2.14-2.21-4.35-4.35-6.48-6.58-1.78-1.86-3.5-3.77-5.2-5.69-1.08-1.23-1.09-1.58-.2-3.01,2.06-3.3,4.14-6.58,6.21-9.88.49-.45,1.03-.81,1.59-1.15.54-.35,1.08-.71,1.69-.93.22-.05.42-.03.62.08Z"/>
    <path class="cls-5" d="m168.21,78.88c-.38,2.45-.63,4.93-1.16,7.34-.74,3.38-1.62,6.73-2.61,10.04-.16.52-1.2,1.05-1.86,1.08-1.04.04-2.15-.21-3.15-.58-3.95-1.47-7.85-3.07-11.8-4.53-1.64-.6-1.39-1.58-.81-2.71,1.33-2.58,2.8-5.09,4.02-7.72,1.21-2.62,2.25-5.34,3.22-8.06.42-1.18.88-1.33,2-.86,2.66,1.13,5.38,2.14,8.1,3.13.76.28,1.67.15,2.4.46.6.26,1.07.87,1.5,1.42.16.21.03.64.03.98.04,0,.08.01.13.02Z"/>
    <path class="cls-4" d="m93.16,88.34c.56.26.8.32.99.46,3.44,2.59,6.88,5.18,10.31,7.78,1.25.95,2.46,1.97,3.74,2.88.96.68,1.12,1.35.32,2.25-2.47,2.79-4.93,5.6-7.38,8.41-.71.81-1.34,1.69-2.05,2.49-.86.96-1.77,1.03-2.84.2-4.07-3.13-8.21-6.17-12.22-9.37-.47-.37-.74-1.78-.42-2.22,2.96-4.09,6.07-8.07,9.13-12.09.2-.26.32-.59.43-.81Z"/>
    <path class="cls-4" d="m117.55,89.96c-1.8,2.36-3.59,4.73-5.45,7.03-.15.19-.96.11-1.26-.12-4.63-3.46-9.2-7-13.83-10.45-1.07-.8-1.13-1.44-.27-2.42,3.13-3.61,5.87-7.54,9.03-11.13,1.49-1.69,1.41-1.81,3.27-.46,3.2,2.32,6.37,4.68,9.55,7.03.52.6.73,1.32.66,2.08-.24,2.55-.5,5.11-1.17,7.6-.09.32-.32.57-.53.83Z"/>
    <path class="cls-4" d="m112,44.33c1.93,1.54,3.86,3.09,5.8,4.61,1.11.87,1.22,1.37.09,2.63-2.48,2.74-4.53,5.86-6.79,8.8-1.11,1.44-2.25,2.86-3.45,4.22-.9,1.02-1.65,1.11-2.86,0-3.46-3.18-7.14-6.12-10.74-9.16-.51-.43-1.01-.86-1.52-1.27-1.01-.8-1.02-1.49-.02-2.4,2.26-2.04,4.42-4.17,6.63-6.27,4.13-2.21,8.45-2.27,12.87-1.17Z"/>
    <path class="cls-3" d="m119.79,13.75c1.48,2.1,2.95,4.2,4.43,6.29.43.6.06.87-.43,1.13-4.38,2.27-8.26,5.29-12.18,8.24-1.66,1.25-3.24,2.61-4.78,4-.7.63-1.25.77-1.89.05-3.13-3.56-6.26-7.11-9.36-10.7-.74-.86-.65-1.2.6-1.85,4.36-2.26,8.87-4.17,13.64-5.43.8-.21,1.61-.41,2.42-.61.39-.23.88-.05,1.27-.29,1.65-.24,3.3-.48,4.96-.72.43-.2.89-.11,1.33-.11Z"/>
    <path class="cls-3" d="m118.14,44.57c-3.67-2.04-6.62-4.99-9.65-7.81-.77-.72.17-1.14.63-1.53,5.19-4.44,10.81-8.29,16.56-11.96.45-.02.9-.13,1.31.16,2.3,2.37,4.51,4.84,7.34,6.61-.03.26-.03.52.09.76-3.19,4.14-6.37,8.3-9.6,12.42-.44.57-1.15.93-1.73,1.38-1.65,1.17-3.3.12-4.95-.02Z"/>
    <path class="cls-4" d="m60.08,87.86c-.29.57-.53,1.09-.82,1.58-1.37,2.35-2.78,4.69-4.12,7.05-.77,1.36-1.44,2.79-2.2,4.16-.3.55-.69.91-1.35.26-1.59-1.57-3.29-3.02-4.85-4.61-2.02-2.07-3.94-4.26-5.93-6.36-.64-.67-.9-1.4-.56-2.26,1.56-4,3.13-8,4.72-11.99.21-.54.49-1.06.81-1.54.37-.57.8-.82,1.34-.09,3.43,4.62,7.82,8.34,11.78,12.47.39.41.75.85,1.18,1.34Z"/>
    <path class="cls-5" d="m156.08,48.87c-.17,3.22-.24,6.71-.59,10.17-.19,1.87-.89,3.7-1.34,5.54-.2.8-.36,1.62-.53,2.43-.32,1.54-.75,1.75-2.18.95-1.45-.82-2.87-1.68-4.3-2.52-1.86-1.09-3.73-2.17-5.59-3.26-1.79-1.05-1.83-1.1-.92-2.88,2.5-4.88,4.38-10.01,6.28-15.13.37-1.01.53-2.09.87-3.11.34-1.02.75-1.17,1.67-.67,1.76.94,3.48,1.94,5.26,2.84.92.47,1.41,1.09,1.38,2.14-.04,1.08,0,2.16,0,3.5Z"/>
    <path class="cls-5" d="m133.08,37.18c1.08-1.51,2.14-3.04,3.3-4.49.15-.18.95-.06,1.29.16,2.36,1.53,4.73,3.04,6.96,4.74.56.43,1.05,1.69.83,2.3-2.17,5.97-4.48,11.88-6.77,17.8-.56,1.45-1.46,1.94-2.85.91-2.85-2.1-5.73-4.18-8.57-6.3-.23-.17-.28-.59-.41-.89-.21-2.69,1.76-4.51,2.69-6.74.77-2.69,2.53-4.91,3.53-7.48Z"/>
    <path class="cls-4" d="m77.06,103.44c-.3.57-.47,1.05-.77,1.44-2.45,3.12-4.92,6.23-7.39,9.33-.68.85-1.16.9-2.1.14-1.99-1.61-3.96-3.26-5.91-4.91-1.33-1.12-2.67-2.23-3.92-3.44-1.66-1.59-1.65-1.64-.58-3.76,1.63-3.25,3.29-6.48,4.95-9.71.19-.37.49-.67.71-1.02.49-.77,1.07-.67,1.67-.17.82.69,1.63,1.4,2.44,2.11,3.3,2.89,6.62,5.77,9.9,8.68.41.36.68.88,1,1.31Z"/>
    <path class="cls-3" d="m71.3,35.33c-4.68,3.8-8.47,8.43-12.16,13.14-1.26,1.61-1.44,1.71-2.62.03-2.01-2.85-4.01-5.72-5.84-8.69-.39-.64-.42-2.11.02-2.55,4.58-4.58,9.28-9.04,13.99-13.49.71-.67,1.13-.11,1.42.64,1.29,3.43,2.94,6.69,5.12,9.65.13.42.08.84.07,1.27Z"/>
    <path class="cls-4" d="m94.58,116.95c-.26.34-.42.63-.66.85-1.67,1.6-2.89,3.59-4.85,4.95-1.41.98-2.5,2.42-3.76,3.64-1.15,1.11-1.46,1.13-2.74.18-1.4-1.04-2.78-2.08-4.16-3.14-1.97-1.51-3.93-3.04-5.89-4.55-.26-.2-.55-.37-.8-.59-.6-.52-.63-1.02-.11-1.71,2.66-3.48,5.28-6.98,7.89-10.5.37-.5.67-.67,1.2-.28.47.34.98.63,1.44.98,3.43,2.6,6.86,5.21,10.27,7.83.59.45,1.12.99,1.65,1.52.22.22.34.53.53.82Z"/>
    <path class="cls-4" d="m112.16,127.93c-.2.38-.26.66-.43.8-1.91,1.58-3.79,3.2-5.78,4.69-1.65,1.24-3.43,2.3-5.13,3.48-1.02.7-1.95.68-2.98,0-3.04-2.01-6.11-3.95-9.15-5.96-1.47-.97-1.39-1.39-.11-2.58,2.5-2.31,4.91-4.71,7.35-7.08.42-.4.82-.83,1.22-1.24.74-.76,1.56-.89,2.46-.3.28.18.54.38.81.58,3.38,2.38,7,4.37,10.51,6.53.46.28.82.72,1.22,1.08Z"/>
    <path class="cls-5" d="m158.57,49.54c0-1.33,0-2.65,0-3.98,0-.71.25-1.12,1.07-.8,1.16.45,2.59.59,3.42,1.37.81.76,1.12,2.13,1.46,3.29.74,2.45,1.39,4.92,2.02,7.4,1.09,4.34,1.7,8.74,1.6,13.24-.02.89.36,1.78.41,2.68.07,1.39-.52,1.74-1.83,1.25-2.72-1.01-5.44-2-8.15-3-.62-.23-1.24-.47-1.85-.72-.92-.36-1.23-.88-.86-1.92,1.43-4,1.98-8.17,2.29-12.38.16-2.14.39-4.28.59-6.42-.05,0-.1,0-.16-.01Z"/>
    <path class="cls-4" d="m81.36,48.31c.44.2.98.31,1.32.62,1.14,1.05,2.2,2.2,3.33,3.27.54.51.51.97.06,1.5-1.99,2.32-4.01,4.62-5.94,6.98-1.46,1.79-2.79,3.68-4.21,5.5-.76.97-1.71,1.01-2.54.2-2.12-2.08-4.27-4.12-6.34-6.25-1.44-1.48-2.76-3.07-4.1-4.64-.2-.24-.27-.59-.39-.9.27-.8.98-1.09,1.65-1.4,3.85-1.76,7.84-3.17,11.92-4.29.88-.24,1.77-.44,2.63-.73.88-.29,1.77-.5,2.61.12Z"/>
    <path class="cls-5" d="m166.3,122.26c-3.47-.45-6.47-.47-9.31-1.43-1.51-.51-1.67-.95-.86-2.29,2.51-4.18,5.28-8.22,7.23-12.71.59-1.37,1.15-2.75,1.69-4.13.21-.55.54-.74,1.13-.7,2.23.15,4.45.26,6.68.39.58.03,1.17-.03,1.73.09.64.14,1.05.59.79,1.29-1.56,4.17-3.12,8.34-4.75,12.49-.64,1.61-1.41,3.18-2.23,4.71-.58,1.07-1.17,2.25-2.09,2.32Z"/>
    <path class="cls-3" d="m44.6,65.03c-.41-.23-.99-.35-1.22-.7-1.69-2.55-3.3-5.16-4.97-7.73-.57-.88-.58-1.71-.01-2.54,2.9-4.24,5.8-8.47,8.72-12.69.3-.44.7-.36,1,.05.24.34.42.71.66,1.05,2.05,2.91,4.08,5.83,6.17,8.7.87,1.19.95,1.16.12,2.32-1.79,2.49-3.57,4.99-5.41,7.43-.59.78-1.38,1.42-2.08,2.12-.79.97-1.68,1.79-2.99,1.99Z"/>
    <path class="cls-3" d="m86.16,12.18c.22.2.58.38.65.63.75,2.49,1.98,4.74,3.36,6.93.29.46.14.78-.22,1.04-.27.19-.58.32-.87.49-4.97,3.06-9.63,6.51-13.97,10.42-1.31,1.18-1.48,1.17-2.34-.41-1.42-2.63-2.82-5.27-4.17-7.93-.82-1.61-.74-1.89.76-2.81,4.25-2.62,8.61-5.02,13.23-6.94.84-.35,1.68-.73,2.52-1.08.3-.13.63-.2,1.05-.34Z"/>
    <path class="cls-5" d="m125.18,55.47c.71.14,1.51.1,2.1.44,1.5.87,2.9,1.9,4.33,2.88,1.22.83,2.43,1.69,3.65,2.52.91.62,1.09,1.11.55,2.05-1.24,2.14-2.49,4.28-3.79,6.39-1.77,2.87-3.65,5.67-5.37,8.57-.78,1.32-1.85,1.56-2.89.83-1.53-1.08-2.85-2.46-4.26-3.72-.43-.59-.39-1.24-.26-1.91,1.11-5.55,2.88-10.91,4.69-16.26.23-.69.51-1.42,1.24-1.79Z"/>
    <path class="cls-4" d="m97.39,155.43c-.83-.28-2.22-.59-3.45-1.2-2.44-1.21-4.8-2.58-7.18-3.9-.43-.24-.85-.52-1.22-.84-.15-.13-.27-.45-.22-.64.05-.17.33-.38.52-.4,2.11-.22,3.94-1.22,5.8-2.11,1.94-.93,3.8-2.03,5.74-2.98,1.4-.68,2.87-1.43,4.19.21,4.07,2.05,8.02,4.35,12.37,5.8.23.08.52.05.71.18.18.12.35.39.34.6,0,.2-.19.43-.35.6-.1.11-.31.11-.46.17-4.98,1.8-10.02,3.39-15.23,4.41-.32.06-.66.05-1.55.11Z"/>
    <path class="cls-4" d="m37.07,107.05c.43-3.68.04-7.45,1.38-11.02.14-.37.05-.82.12-1.23.07-.39.2-.76.3-1.14.41.2.96.29,1.22.62,2.37,2.98,4.87,5.82,7.82,8.26.57.47,1.07,1.04,1.59,1.58.9.93,1,1.86.47,3.13-1.47,3.5-3.22,6.9-4,10.67-.19.94-.96,1.11-1.67.42-2.2-2.15-4.34-4.35-6.54-6.5-.67-.66-.72-1.45-.7-2.29.01-.83,0-1.66,0-2.49Z"/>
    <path class="cls-4" d="m65.24,118.61c-.24.52-.39,1.09-.72,1.52-2.02,2.71-4.11,5.38-6.12,8.1-.83,1.12-1.48,1.25-2.57.23-1.68-1.58-3.54-2.97-5.32-4.44-1.33-1.1-2.23-2.02-1.29-4.15,1.6-3.59,2.61-7.43,3.92-11.15.08-.23.86-.49,1-.37,3.52,3.01,7,6.07,10.46,9.14.28.25.39.68.63,1.13Z"/>
    <path class="cls-3" d="m64.67,19.78c-.32.38-.62.85-1.03,1.19-2.34,1.99-4.8,3.85-7.04,5.95-2.54,2.38-4.9,4.96-7.31,7.47-.8.83-1.24.86-1.6-.16-.89-2.5-1.67-5.04-2.5-7.55-.34-1.03.1-1.77.85-2.4,4.07-3.41,8.12-6.86,12.74-9.54,1.29-.75,2.55-1.56,3.84-2.31.39-.23.92-.25.91.34-.07,2.35.14,4.64,1.14,7.02Z"/>
    <path class="cls-4" d="m68.3,120.76c.64.4.85.52,1.05.67,3.24,2.42,6.49,4.83,9.72,7.28,1.38,1.05,1.36,1.87-.09,2.93-2.86,2.1-5.75,4.15-8.64,6.22-1.1.78-2.21.6-3.36-.39-1.61-1.39-3.27-2.73-4.91-4.08-.25-.21-.72-.34-.77-.58-.16-.69-.49-1.65-.18-2.1,1.6-2.3,3.39-4.47,5.09-6.7.6-.79,1.19-1.59,1.75-2.41.18-.27.25-.61.33-.84Z"/>
    <path class="cls-5" d="m151.09,137.57c-2.22-.22-4.44-.44-6.66-.68-.32-.03-.65-.14-.95-.26-1.03-.42-1.22-1.06-.5-1.92,1.18-1.39,2.42-2.72,3.6-4.1,1.18-1.38,2.32-2.8,3.48-4.2.58-.7,1.14-1.44,1.81-2.05.82-.74,1.7-.99,2.94-.74,2.34.46,4.57,1.52,7.05,1.3.46-.04.96.22,1.43.4.83.31,1.03.76.52,1.51-2.09,3.06-4.14,6.15-6.52,9.02-1.01,1.21-2.17,1.69-3.69,1.6-.83-.05-1.66,0-2.49,0l-.02.14Z"/>
    <path class="cls-4" d="m115.69,124.88c-.32-.07-.69-.05-.95-.21-4.01-2.48-8.01-4.96-11.99-7.48-1.38-.87-1.44-1.59-.4-2.79,2.97-3.44,6.22-6.64,8.86-10.37,1.05-1.48,1.27-1.43,2.81-.49.7.43,1.38.9,2.07,1.35.44.54.59,1.17.53,1.85-.47,5.1-.11,10.21-.24,15.31-.02.99,0,1.99-.67,2.83Z"/>
    <path class="cls-5" d="m171.64,98.44c-5.29-.03-5.1.02-3.66-5.13,1.14-4.05,1.85-8.23,2.53-12.39.42-2.55.72-3.04,3.2-3.02,4.87.04,4.91.04,4.8,4.91-.1,4.55-.69,9.05-1.8,13.48-.52,2.09-.49,2.11-2.59,2.16-.83.02-1.67,0-2.5,0Z"/>
    <path class="cls-5" d="m116.05,130.37c.71-.47,1.35-.33,2.08.04,2.94,1.51,5.89,3.01,8.89,4.4,2.03.94,4.15,1.67,6.23,2.49,1.5.59,1.47.78.38,1.9-3.17,3.26-7.14,5.35-10.92,7.74-.68.43-1.51.65-2.3.87-.84.23-1.45-.15-1.82-.92-.64-.7-.88-1.56-1.1-2.45-.93-3.86-1.23-7.82-1.92-11.72-.15-.84-.1-1.65.48-2.35Z"/>
    <path class="cls-5" d="m169.03,46.92c1.54-.42,2.36.48,3.02,1.96,2.92,6.54,4.88,13.34,5.53,20.49.15,1.64.41,3.28.42,4.92,0,.37-.77,1.02-1.24,1.07-1.19.12-2.42.07-3.61-.08-1.52-.2-2.72-.51-2.59-2.7.47-8.36-.91-16.48-3.83-24.33-.4-1.08-.03-1.3,2.29-1.33Z"/>
    <path class="cls-5" d="m135.82,151.58c-3.33-.58-6.67-1.16-10-1.76-.2-.04-.53-.3-.51-.4.06-.28.2-.68.43-.78,4.09-1.96,7.44-4.92,10.76-7.91,1.35-1.21,2.75-1.51,4.57-1.14,2.9.6,5.87.84,8.8,1.28.42.06.9.33,1.13.66.11.15-.22.78-.5,1.01-2.81,2.31-5.73,4.5-8.47,6.88-1.83,1.6-3.85,2.15-6.22,2.15Z"/>
    <path class="cls-4" d="m125.18,55.47c-1.31,4.17-2.68,8.32-3.9,12.51-.71,2.45-1.2,4.97-1.78,7.45-.8-.42-1.65-.75-2.38-1.28-2.28-1.65-4.48-3.4-6.77-5.04-.79-.57-.96-1.09-.35-1.83,1.82-2.24,3.67-4.46,5.46-6.72,1.13-1.43,2.18-2.92,3.26-4.39.29-.4.57-.81.86-1.22,2.22-3.17,3.76-3.03,5.6.52Z"/>
    <path class="cls-4" d="m84.14,132.45c.43.21.9.39,1.31.66,3.12,2.04,6.23,4.1,9.35,6.15.81.54.88,1.03.05,1.44-2.62,1.26-5.25,2.5-7.93,3.62-1.67.7-3.46,1.1-5.15,1.76-.95.37-1.8.38-2.61-.17-1.99-1.34-3.96-2.72-5.91-4.11-.66-.47-.5-1.04.1-1.39,3.63-2.17,6.78-4.97,10.09-7.57.19-.15.42-.23.71-.38Z"/>
    <path class="cls-3" d="m81.36,48.31c-1.94.43-3.92.72-5.8,1.32-4.43,1.4-8.88,2.79-13.01,4.97-.95,0-1.46-.65-2.02-1.28-.68-.76-.63-1.41.05-2.17,3.05-3.38,6.06-6.78,9.08-10.18.82-.93,1.65-1.85,2.47-2.78.54-.62,1.04-.76,1.6-.01.7.92,1.41,1.84,2.15,2.73,1.63,1.97,3.27,3.94,4.94,5.89.39.46.78.86.53,1.51Z"/>
    <path class="cls-3" d="m42.68,28.75c.97,2.65,1.88,5.32,2.95,7.93.37.89.36,1.47-.22,2.25-2.35,3.12-4.65,6.28-6.92,9.47-.67.94-1.17,2.01-1.77,3-.11.19-.36.42-.53.41-.18,0-.43-.26-.5-.45-.45-1.25-.98-2.49-1.27-3.78-.49-2.18-.82-4.4-1.23-6.6-.21-1.15.11-2.13.82-3.02,2.38-3,4.75-6,7.14-8.99.43-.54.93-1.05,1.58-.22l-.03.02Z"/>
    <path class="cls-3" d="m114.35,8.59c.5.04,1,.08,1.49.12.58.14,1.19-.13,1.76.17.63.13,1.16.51,1.02,1.16-.08.36-.62.76-1.03.88-.87.26-1.78.37-2.68.5-6.52.96-12.66,3.1-18.59,5.9-.82.39-1.56.93-2.33,1.41-.43-.05-.88.07-1.27-.18-1.02-2.08-2.05-4.16-3.05-6.25-.35-.74-.15-1.25.73-1.45,1.45-.33,2.89-.71,4.33-1.07.26-.05.53-.04.77-.19,1.58-.24,3.16-.49,4.75-.73.56-.27,1.19,0,1.75-.23,4.11-.01,8.22-.03,12.33-.04v.19s.03-.19.03-.19Z"/>
    <path class="cls-3" d="m24.05,56.99c1.77-3.93,3.54-7.86,5.33-11.78.23-.5.63-.93.95-1.39l.21.07.03.22c.73,3.67,1.91,7.18,3.64,10.51.18.35.14.99-.07,1.34-2.79,4.57-4.65,9.51-6.07,14.64-.06.21-.24.38-.37.57-.21-.21-.51-.38-.63-.64-1.48-3.42-2.95-6.85-3.03-10.68-.33-.96-.33-1.92,0-2.88Z"/>
    <path class="cls-5" d="m115.69,124.88c0-5.52-.03-11.04,0-16.57,0-1.14.24-2.28.37-3.42.74.34,1.54.59,2.22,1.02,1.61,1,3.15,2.12,4.75,3.13,1.24.79,2.55,1.48,3.8,2.27.86.54.95.99.28,1.82-1.55,1.92-3.09,3.85-4.75,5.67-1.94,2.14-3.98,4.19-6.01,6.25-.08.09-.45-.1-.68-.17Z"/>
    <path class="cls-4" d="m27.76,90.5c.27-3.04.53-6.08.83-9.11.03-.27.28-.69.48-.73.23-.04.62.2.78.43,1.61,2.29,3.21,4.59,4.76,6.93.49.75.86,1.59,1.2,2.42.15.35.23.86.08,1.18-1.36,2.99-1.43,6.21-1.81,9.38-.17,1.47-.31,2.95-.51,4.42-.04.28-.24.58-.47.76-.1.08-.5-.06-.64-.22-.55-.61-1.06-1.26-1.55-1.91-.45-.59-.78-1.29-1.29-1.8-1.07-1.08-1.48-2.38-1.51-3.82-.06-2.64-.06-5.29-.08-7.93-.09,0-.18,0-.27,0Z"/>
    <path class="cls-3" d="m85.52,9.35c-6.18,1.85-11.87,4.69-17.14,8.4-.27.19-.52.44-.82.56-.46.19-.83.04-.88-.49-.1-.99-.17-1.98-.25-2.97-.16-.4-.06-.83-.16-1.24.01-.42.02-.84.03-1.26.06-.42-.02-.85.12-1.26.21-.32.42-.65.64-.97.37.06.36-.62.8-.41,5.35-2,10.73-3.93,16.29-5.29,1.09-.39,1.71-.13,1.67,1.15-.02.64-.04,1.28.06,1.92.06.35.12.71.18,1.06-.26.21-.22.63-.54.81Z"/>
    <path class="cls-4" d="m116.05,130.37c.14,1.06.29,2.11.41,3.17.48,4.16,1.12,8.29,2.08,12.37.07.31.03.66.05.99-3.45-.76-6.47-2.52-9.59-4.06-1.56-.77-3.13-1.54-4.67-2.36-.73-.39-.78-.86-.2-1.31,3.66-2.84,7.32-5.67,10.99-8.48.25-.19.62-.21.93-.31Z"/>
    <path class="cls-4" d="m41.5,67.41c2.35,2.25,2.49,3.13,1.12,5.71-1.86,3.49-3.13,7.3-4.65,10.97-.43,1.04-.82,1.68-1.74.27-1.86-2.83-3.83-5.58-5.76-8.36.36-1.18,1.32-1.88,2.2-2.6,1.79-1.46,3.6-2.89,5.38-4.37.97-.81,1.94-1.86,3.45-1.62Z"/>
    <path class="cls-3" d="m41.5,67.41c-3.19,1.61-5.68,4.15-8.42,6.35-.89.72-1.74,1.49-2.62,2.24-.26-.32-.8-.75-.73-.95,1.88-5.28,3.82-10.53,5.8-15.78.07-.19.88-.36.92-.28,1.71,2.79,3.37,5.6,5.04,8.42Z"/>
    <path class="cls-3" d="m19.93,74.08c.09-.57.17-1.14.26-1.71.17-.25.16-.55.21-.82.29-1.8.55-3.61.88-5.41.07-.37.39-.7.59-1.05.24.29.63.56.71.89.74,3.19,2.18,6.07,3.61,8.99.93,1.91.09,3.89-.87,5.68-.23.43-.6.79-.91,1.18-.45,1.85-1.92,2.7-3.43,3.51-.19.07-.37.14-.56.2-.96-.21-.33-1.15-.76-1.61.03-2.84.06-5.69.09-8.53.14-.43.04-.89.18-1.32Z"/>
    <path class="cls-3" d="m97.46,2.79c2.09-.03,4.18-.05,6.27-.08,1.06.1,2.13-.11,3.18.14,1.25.12,2.5.24,3.75.35.27.04.55.02.81.11l4.26.55h.19c.63.2,1.29.32,1.87.6.3.15.46.59.69.9-.41.19-.8.49-1.22.53-.47.04-.96-.23-1.45-.24-3.78-.04-7.56-.05-11.34-.08-.91.37-1.92-.1-2.82.31-3.34.11-6.63.6-9.83,1.6,0,0,.02,0,.02,0-.77.22-1.55.45-2.32.67-.42.07-1.01.06-1.04-.35-.12-1.47-.76-3.1.87-4.23.46-.07.92-.15,1.39-.22.67-.33,1.47.17,2.12-.34,1.45-.07,2.9-.14,4.35-.22.08,0,.17,0,.25,0Z"/>
    <path class="cls-5" d="m147.52,26.09c-.3,2.86-.57,5.66-.94,8.44-.03.24-.98.67-1.18.54-1.91-1.31-3.84-2.61-5.54-4.16-.5-.45-.67-1.98-.29-2.54,1.84-2.75,3.9-5.36,5.95-7.97.09-.12,1.16.19,1.2.41.35,1.77.55,3.57.79,5.28Z"/>
    <path class="cls-1" d="m105.99,157.95c3.55-1.38,7.09-2.77,10.64-4.15.25-.17.61-.13.79-.42.38-.21.76-.41,1.14-.62.52-.15,1.04-.33,1.58-.05,1.27,1.52,1.48,3.49,2.24,5.23.2.47.07.99-.38,1.34l-.13.04c-.19.33-.54.31-.85.4-.19.04-.37.09-.56.13-.75.38-1.47.8-2.36.75-.36.02-.73.04-1.09.07-2.81-.08-5.66.14-8.39-.82h-.05c-.79-.45-1.76-.05-2.55-.63-.67-.48-.69-.82-.03-1.26Z"/>
    <path class="cls-3" d="m129.52,21.47c4.36-1.39,8.73-2.78,13.09-4.17.16.02.29-.02.41-.14.31.12.62.25.94.37-.22.27-.14.58-.14.89-2.27,3.06-4.55,6.11-6.82,9.17-.44.15-.88.16-1.32,0-2.03-1.75-4.05-3.5-6.08-5.25-.34-.26-.27-.55-.08-.86Z"/>
    <path class="cls-4" d="m46.48,135.41c.23-2.71.42-5.01.64-7.31.03-.32.2-.63.34-.93.35-.73.75-.77,1.33-.23,1.62,1.52,3.25,3.03,4.91,4.51,1.02.9,1.11,1.08.32,2.25-1.66,2.47-3.35,4.92-5.06,7.35-.21.3-.74.71-.93.63-.38-.17-.84-.61-.9-.99-.3-1.87-.48-3.76-.66-5.27Z"/>
    <path class="cls-4" d="m64.84,140.74c-.17.16-.32.43-.53.47-2.11.47-3.85,1.82-5.99,2.37-1.72.44-3.53.72-5.22,1.34-.41.15-.9.05-1.36.06.05-.54-.03-1.14.18-1.62.32-.76.78-1.46,1.26-2.14,1.34-1.89,2.72-3.75,4.08-5.63.4-.55.85-.77,1.45-.26,1.97,1.65,3.94,3.29,5.9,4.94.11.09.14.29.22.47Z"/>
    <path class="cls-4" d="m20.93,95.8c.14.08.32.12.4.24,2.28,3.36,4.21,6.81,4.82,10.98.5,3.41,1.55,6.75,2.53,10.06.75,2.54,1.79,4.98,2.68,7.48.06.17-.11.43-.17.65-.22-.07-.55-.08-.66-.24-.33-.47-.63-.98-.86-1.5-.97-2.19-1.97-4.38-2.86-6.61-1.38-3.44-3.15-6.73-3.86-10.44-.52-2.74-1.46-5.41-2.15-8.12-.18-.71-.15-1.47-.18-2.21,0-.09.2-.19.3-.28Z"/>
    <path class="cls-4" d="m88.67,162.91c-5.72-.83-11.37-1.97-16.8-4.02-.46-.17-.95-.29-1.4-.51-.25-.12-.43-.38-.64-.58.27-.14.55-.41.8-.39,1.06.12,2.19.13,3.15.53,2.34.98,4.85,1,7.27,1.34,3.09.44,6.25.44,9.38.55.97.03,1.95-.24,2.93-.31,1.07-.08,2.15-.12,3.22-.13.87,0,1.39.45,1.48,1.34-.49.92-1.45,1.02-2.31,1.26-1.83.51-3.68.95-5.56,1.25-.56.1-1.07-.03-1.54-.34Z"/>
    <path class="cls-4" d="m78.86,150.8c1.14-.1,2.05.31,3.01.94,2.01,1.3,4.14,2.43,6.2,3.65.25.15.42.45.63.68-.28.06-.57.18-.84.15-.82-.08-1.63-.32-2.44-.33-3.57-.06-7.05-.69-10.57-1.25-2.71-.43-5.28-1.28-7.94-1.82-.21-.04-.38-.25-.57-.38.23-.18.44-.49.69-.52.74-.08,1.5-.08,2.24-.04,2.59.12,5.11-.31,7.62-.86.64-.14,1.31-.15,1.97-.23Z"/>
    <path class="cls-4" d="m44.13,125.2c-.18,1.14-.42,2.27-.54,3.41-.2,1.97-.33,3.94-.51,5.91-.02.17-.23.35-.4.46-.05.03-.31-.13-.37-.25-.57-1.18-1.27-2.33-1.65-3.57-.9-2.99-1.68-6.02-2.41-9.05-.33-1.35-.46-2.76-.64-4.14-.03-.22.1-.46.16-.69.22.07.5.08.66.22.73.68,1.42,1.39,2.12,2.1.76.77,1.46,1.6,2.29,2.29,1.07.89,1.47,1.96,1.3,3.31Z"/>
    <path class="cls-5" d="m166.99,43.98c-1.47.39-2.11-.72-2.66-2.04-.89-2.11-1.9-4.18-2.75-6.31-1.15-2.88-3-5.31-4.82-7.78-.63-.85-1.11-1.81-1.61-2.75-.09-.17.06-.47.1-.7.21.06.47.05.63.18,1.66,1.37,2.92,3.08,4.14,4.83,1.85,2.64,3.68,5.29,5.53,7.93.76,1.08,1.59,2.11,2.33,3.2.51.75.95,1.55,1.37,2.35.4.78-.05,1.05-.76,1.08-.41.02-.83,0-1.5,0Z"/>
    <path class="cls-5" d="m149.62,29.01c0-1.25-.02-2.5.02-3.74,0-.2.2-.49.38-.55.18-.06.52.03.65.18.32.37.64.77.8,1.22,1.55,4.2,2.71,8.51,3.83,12.84.19.74-.23,1.27-.87.94-1.69-.85-3.38-1.75-4.88-2.88-.46-.35-.43-1.54-.37-2.32.13-1.89.41-3.78.63-5.67-.06,0-.12-.02-.18-.02Z"/>
    <path class="cls-5" d="m122,159.28c-.67-2.23-1.34-4.47-2-6.7-.35-.04-.88.29-.91-.43,1.39-.36,2.69-.45,4.03.42.78.51,1.88.56,2.84.77,1.61.36,3.23.67,4.85,1.03.21.05.56.25.55.37-.01.29-.12.71-.33.84-2.82,1.69-5.57,3.59-9.04,3.7Z"/>
    <path class="cls-3" d="m126.63,18.95c-.97-1.43-1.99-2.84-2.87-4.33-.12-.19.48-1.17.71-1.15,4.37.31,8.74.69,13.11,1.1.35.03.68.36,1.01.56-.36.15-.71.32-1.07.45-3.18,1.16-6.35,2.31-9.53,3.46-.47.21-.93.29-1.36-.08Z"/>
    <path class="cls-3" d="m112,44.33c-3.15.18-6.3.33-9.45.57-1.15.09-2.28.39-3.42.6-.31-.91.46-1.35.92-1.83,1.43-1.48,2.92-2.91,4.41-4.33,1.08-1.03,1.18-1.02,2.24-.1,1.48,1.31,2.98,2.61,4.44,3.94.35.32.58.76.87,1.15Z"/>
    <path class="cls-4" d="m66.02,148.55c-1.99-.22-4.03-.43-6.07-.66-.16-.02-.31-.1-.47-.15.14-.17.25-.43.43-.51,1.28-.58,2.58-1.1,3.86-1.68,1.2-.54,2.42-1.06,3.56-1.7.71-.4,1.4-.68,2.08-.23,1.58,1.04,3.1,2.17,4.62,3.29.16.11.31.44.25.59-.06.17-.36.33-.56.35-2.54.25-5.08.47-7.7.7Z"/>
    <path class="cls-1" d="m89.88,162.84c2.73-.7,5.46-1.4,8.19-2.11.51-.03,1.03-.05,1.54-.08.47.02.99-.19,1.38.25,1.67.52,3.34,1.05,5.01,1.57.54,1.09-.02,1.17-.89.96-.86.06-1.71.12-2.57.17-.35-.02-.69,0-1.02.13l-9.91-.04c-.57-.31-1.61.32-1.74-.87Z"/>
    <path class="cls-4" d="m20.98,85.35c1.14-1.17,2.29-2.34,3.43-3.51.97.64,1.09,1.43.77,2.56-.69,2.48-.9,5.02-.35,7.58.08.37-.02.81-.14,1.18-.11.36-.36.68-.55,1.01-.22-.3-.49-.57-.64-.9-.68-1.5-1.43-2.99-1.95-4.55-.36-1.07-.39-2.25-.57-3.38Z"/>
    <path class="cls-5" d="m117.55,89.96c.2-1.96.41-3.91.6-5.87.15-1.55.3-3.1.44-4.64,1.46.75,2.94,1.45,4.36,2.26.67.38.85,1.14.26,1.68-1.78,1.65-2.87,3.78-4.27,5.7-.3.41-.93.58-1.4.86Z"/>
    <path class="cls-4" d="m34.61,119.46c-.03.62,0,.88-.07,1.11-.07.2-.25.37-.38.56-.17-.13-.44-.22-.51-.4-.68-1.77-1.34-3.54-1.97-5.33-.44-1.24-.81-2.5-1.21-3.75-.12-.39-.34-.78-.34-1.17,0-.45.22-.89.34-1.33.4.23.9.37,1.2.7,1.45,1.58,1.99,3.52,2.2,5.62.14,1.46.52,2.9.73,4Z"/>
    <path class="cls-4" d="m129.77,44.88c.03.16.15.36.09.47-.99,2.03-2,4.04-3,6.06-.66-.32-1.38-.55-1.96-.97-.85-.62-1.09-1.4-.24-2.29,1.02-1.05,2-2.14,2.99-3.21.69-.57,1.39-.62,2.11-.06Z"/>
    <path class="cls-5" d="m156.98,33.08c.22.12.42.16.48.27,1.27,2.48,2.56,4.95,3.77,7.46.16.34.06,1.17-.14,1.26-.45.2-1.18.27-1.55.03-.51-.33-.96-.95-1.15-1.54-.54-1.71-1.41-3.35-1.32-5.24.03-.55-.26-1.12-.33-1.68-.02-.17.16-.37.25-.56Z"/>
    <path class="cls-4" d="m86.07,47.29c2.01-.39,4.02-.77,6.04-1.16-.04,1.86-1.87,2.56-2.61,3.98-.07.13-.84.1-1.04-.1-.85-.86-1.6-1.81-2.39-2.72Z"/>
    <path class="cls-3" d="m129.77,44.88c-.7.02-1.41.04-2.11.06,0-.24-.08-.56.04-.72,1.78-2.36,3.58-4.69,5.38-7.03-.07.63.02,1.35-.24,1.88-.96,1.97-2.04,3.88-3.07,5.81Z"/>
    <path class="cls-4" d="m118.14,44.57l4.95.02c-.18.62-.33,1.26-.56,1.86-.26.68-.81,1-1.55.96-.76-.05-1.35-.46-1.32-1.18.06-1.16-.97-1.15-1.51-1.66Z"/>
    <path class="cls-3" d="m127.08,7.49c-1.53-.23-3.07-.42-4.59-.7-.59-.11-1.54-.16-1.32-1.06.26-1.05,1.03-.34,1.59-.19,1.25.34,2.5.71,3.75,1.07.43.14.82.31.58.88Z"/>
    <path class="cls-4" d="m44.6,65.03c1-.66,1.99-1.33,2.99-1.99-.18.87-.28,1.77-.58,2.61-.17.47-.59,1.03-1.02,1.17-.74.23-1.2-.33-1.36-1.05-.05-.23-.02-.49-.03-.73Z"/>
    <path class="cls-3" d="m124.97,10.72c-1.13.11-2.3.41-3.31-.39-.19-.15-.26-.56-.25-.84,0-.12.4-.34.57-.31,1.36.25,2.7.55,4.05.84.15,1.01-.61.62-1.07.7Z"/>
    <path class="cls-8" d="m111.7,165.6c-3.25,1.14-6.63,1.34-10.03,1.27.28-.14.55-.35.85-.4,2.41-.35,4.83-.69,7.25-.97.63-.07,1.29.06,1.94.1Z"/>
    <path class="cls-4" d="m116.91,97.45c-.03.96-.06,1.93-.09,2.89-.39-.12-.78-.21-1.16-.35-1.05-.41-1.06-.43-.17-1.31.44-.44.94-.82,1.42-1.22Z"/>
    <path class="cls-8" d="m108.63,159.84c2.8.27,5.59.55,8.39.82-2.86.42-5.7.6-8.39-.82Z"/>
    <path class="cls-3" d="m58.76,56.3c-.68.42-1.35.85-2.03,1.27-.5.13-.81-.03-.9-.56.35-.46.73-.9,1.03-1.39.43-.71,1.02-.76,1.72-.55.36.37.22.81.18,1.23Z"/>
    <path class="cls-8" d="m105.99,157.95c.03.33-.04.89.11.96.79.37,1.64.62,2.47.91-1.22-.17-2.45-.32-3.67-.54-.26-.05-.47-.38-.7-.57.26-.26.48-.6.8-.75.27-.12.65-.02.98-.01Z"/>
    <path class="cls-5" d="m89.35,3.57c-1.22,1.12-.9,2.58-.78,3.96.02.23.62.42.95.63-.22.09-.44.18-.66.26-.24-1.09-.56-2.17-.71-3.28-.11-.81-.12-1.75,1.19-1.57Z"/>
    <path class="cls-5" d="m127.08,7.49c-.19-.29-.38-.59-.58-.88.69.23,1.43.37,2.07.71.4.22,1.38-.09,1.09.86-.05.16-.92.19-1.35.07-.44-.12-.82-.49-1.23-.75Z"/>
    <path class="cls-8" d="m105.12,163.44c.44-.19,1-.26.89-.96.32.04.68,0,.94.15.32.18.56.5.83.77-.35.13-.7.39-1.04.38-.54-.02-1.08-.21-1.62-.33Z"/>
    <path class="cls-8" d="m123.31,162.37c.04.35.07.69.11,1.04-.92,0-1.83.01-2.75.02.62-1.01,1.62-1.04,2.64-1.06Z"/>
    <path class="cls-8" d="m117.34,164.31c-1.02,1.15-2.42.83-3.71.93,1.24-.31,2.47-.62,3.71-.93Z"/>
    <path class="cls-2" d="m100.9,166.99c-1.71.5-3.42.47-5.14.05,1.71-.02,3.43-.03,5.14-.05Z"/>
    <path class="cls-5" d="m85.88,7.48c-.07-.47-.21-.95-.2-1.42.03-1.45.05-1.45-1.53-1.65,1.76-.44,1.88-.37,1.88,1.15,0,.64-.1,1.28-.15,1.92Z"/>
    <path class="cls-5" d="m124.97,10.72c.36-.23.71-.47,1.07-.7.55.1,1.11.16,1.64.32.18.05.28.33.42.51-.15.04-.3.11-.45.1-.89-.07-1.79-.15-2.68-.23Z"/>
    <path class="cls-8" d="m89.88,162.84c.58.29,1.16.58,1.74.87-1.09.12-2.24.47-2.95-.81.4-.02.81-.04,1.21-.06Z"/>
    <path class="cls-8" d="m106.91,2.86c-1.06-.05-2.12-.09-3.18-.14,1.06.05,2.12.09,3.18.14Z"/>
    <path class="cls-5" d="m55.84,57.01c.3.19.6.38.9.56-.53.25-1.06.51-1.59.76.23-.44.46-.88.69-1.33Z"/>
    <path class="cls-8" d="m101.65,5.89c.94-.1,1.88-.21,2.82-.31-.94.1-1.88.21-2.82.31Z"/>
    <path class="cls-8" d="m91.53,166.81c-.97-.13-1.94-.26-2.92-.39.97.13,1.94.26,2.92.39Z"/>
    <path class="cls-8" d="m118.11,160.59c.79-.25,1.57-.5,2.36-.75-.64.7-1.3,1.34-2.36.75Z"/>
    <path class="cls-5" d="m24.05,56.99c0,.96,0,1.92,0,2.88-.7-.96-.75-1.92,0-2.88Z"/>
    <path class="cls-1" d="m117.6,8.88c-.59-.06-1.17-.11-1.76-.17.59.06,1.17.11,1.76.17Z"/>
    <path class="cls-5" d="m19.67,83.94c.25.54.5,1.07.76,1.61-.25-.05-.69-.07-.7-.16-.08-.48-.05-.97-.05-1.45Z"/>
    <path class="cls-5" d="m92.85,3.02c-.71.11-1.41.22-2.12.34.71-.11,1.41-.22,2.12-.34Z"/>
    <path class="cls-5" d="m101.99,8.63c-.58.08-1.17.16-1.75.23.58-.08,1.17-.16,1.75-.23Z"/>
    <path class="cls-1" d="m119.79,13.75c-.44.04-.89.07-1.33.11.44-.04.89-.07,1.33-.11Z"/>
    <path class="cls-5" d="m135.68,27.58c.44,0,.88,0,1.32,0-.44.51-.88.5-1.32,0Z"/>
    <path class="cls-8" d="m119.08,152.15c.3.14.61.29.91.43-.48.06-.95.12-1.43.18.17-.2.35-.4.52-.61Z"/>
    <path class="cls-8" d="m120.18,163.57c-.35.09-.7.18-1.05.27.35-.09.7-.18,1.05-.27Z"/>
    <path class="cls-5" d="m19.93,74.08c-.06.44-.12.88-.18,1.32.06-.44.12-.88.18-1.32Z"/>
    <path class="cls-5" d="m66.43,11.08c-.04.42-.08.84-.12,1.26.04-.42.08-.84.12-1.26Z"/>
    <path class="cls-8" d="m58.76,56.3c-.06-.41-.12-.82-.18-1.23.15.42.31.84.46,1.26l-.14.02-.14-.05Z"/>
    <path class="cls-5" d="m66.28,13.61c.05.41.11.83.16,1.24-.05-.41-.11-.83-.16-1.24Z"/>
    <path class="cls-5" d="m113.5,14.58l-1.27.29,1.27-.29Z"/>
    <path class="cls-5" d="m71.3,35.33c-.02-.42-.04-.85-.07-1.27.52.4.5.82.07,1.27Z"/>
    <path class="cls-5" d="m92.71,18.55c.42.06.85.12,1.27.18-.48.34-.92.39-1.27-.18Z"/>
    <path class="cls-5" d="m126.63,18.95l1.36.08c-.49.54-.95.59-1.36-.08Z"/>
    <path class="cls-8" d="m101,160.91c-.46-.08-.92-.17-1.38-.25.55-.43,1.03-.43,1.38.25Z"/>
    <path class="cls-5" d="m126.98,23.42c-.44-.05-.87-.11-1.31-.16.5-.44.93-.39,1.31.16Z"/>
    <path class="cls-1" d="m30.58,44.13c-.12-.07-.2-.17-.24-.3.08.1.16.2.24.3Z"/>
    <path class="cls-5" d="m111.48,3.32l-.81-.11.81.11Z"/>
    <path class="cls-5" d="m85.52,9.35c.18-.27.36-.54.54-.81-.18.27-.36.54-.54.81Z"/>
    <path class="cls-5" d="m67.87,9.7l-.8.41.8-.41Z"/>
    <path class="cls-8" d="m101.53,163.75c.34-.04.68-.09,1.02-.13-.34.04-.68.09-1.02.13Z"/>
    <path class="cls-5" d="m95.49,9.6c-.26.06-.51.13-.77.19.26-.06.51-.13.77-.19Z"/>
    <path class="cls-5" d="m143.82,18.42c.05-.3.09-.59.14-.89-.05.3-.09.59-.14.89Z"/>
    <path class="cls-5" d="m129.52,21.47c.03.29.05.57.08.86-.03-.29-.05-.57-.08-.86Z"/>
    <path class="cls-2" d="m134.42,30.79c-.03-.25-.06-.5-.09-.76.03.25.06.5.09.76Z"/>
    <path class="cls-8" d="m121.02,159.71c.28-.13.57-.27.85-.4-.28.13-.57.27-.85.4Z"/>
    <path class="cls-8" d="m117.42,153.37c-.26.14-.53.28-.79.42.26-.14.53-.28.79-.42Z"/>
    <path class="cls-5" d="m20.4,71.55c-.07.27-.14.55-.21.82.07-.27.14-.55.21-.82Z"/>
    <path class="cls-1" d="m75.76,35.58c.11.08.13.17.05.28l-.13-.12.08-.16Z"/>
    <path class="cls-1" d="m42.68,28.75l.03-.02-.03.02Z"/>
    <path class="cls-5" d="m143.02,17.16l-.17.16s-.23-.02-.23-.02l.41-.14Z"/>
    <polygon class="cls-1" points="114.35 8.59 114.32 8.71 114.32 8.59 114.35 8.59"/>
    <path class="cls-8" d="m118.15,164.05c-.18.06-.36.12-.54.17.18-.06.36-.12.54-.17Z"/>
    <path class="cls-5" d="m91.84,7.48h-.02s.02,0,.02,0Z"/>
    <path class="cls-8" d="m87.06,166.2l-.24.05-.22-.12c.15.02.31.04.46.06Z"/>
    <polygon class="cls-5" points="115.93 3.88 115.74 3.87 115.84 3.71 115.93 3.88"/>
    <polygon class="cls-8" points="97.46 2.79 97.33 2.87 97.2 2.8 97.32 2.64 97.46 2.79"/>
    <polygon class="cls-2" points="125.7 169.57 125.84 169.63 125.79 169.76 125.69 169.7 125.7 169.57"/>
  </g>
</svg>